<svg id="svg" version="1.1" xmlns="http://www.w3.org/2000/svg" xmlns:xlink="http://www.w3.org/1999/xlink" width="400" height="400" viewBox="0, 0, 400,400"><g id="svgg"><path id="path0" d="M0.006 7.500 C 0.010 12.490,0.142 14.799,0.400 14.400 C 0.613 14.070,0.791 13.564,0.794 13.275 C 0.841 9.234,9.466 0.800,13.551 0.800 C 13.992 0.800,14.464 0.620,14.600 0.400 C 14.761 0.139,12.271 0.000,7.424 0.000 L 0.000 0.000 0.006 7.500 M385.400 0.400 C 385.536 0.620,386.008 0.800,386.449 0.800 C 390.509 0.800,399.159 9.259,399.206 13.275 C 399.209 13.564,399.387 14.070,399.600 14.400 C 399.858 14.799,399.990 12.490,399.994 7.500 L 400.000 0.000 392.576 0.000 C 387.729 0.000,385.239 0.139,385.400 0.400 M260.453 86.650 C 259.492 86.986,256.342 88.665,253.453 90.379 C 245.682 94.991,238.267 99.240,234.200 101.410 C 221.611 108.129,203.101 119.120,188.400 128.605 C 166.947 142.446,157.933 146.950,127.600 158.986 C 101.268 169.433,92.566 173.608,69.200 187.004 C 38.821 204.419,35.722 208.137,35.868 227.000 C 35.977 241.132,36.804 243.677,43.510 250.512 C 50.141 257.271,60.358 266.439,70.400 274.641 C 86.630 287.897,88.409 289.266,103.210 299.901 C 107.725 303.146,113.015 307.032,114.965 308.538 C 122.338 314.231,124.598 315.052,128.991 313.632 C 137.779 310.793,166.696 293.974,179.600 284.196 C 187.685 278.070,192.259 275.329,206.902 267.836 C 222.557 259.825,241.322 248.545,243.640 245.752 C 244.206 245.070,244.208 241.144,243.648 227.258 L 243.400 221.116 242.000 222.370 C 240.549 223.670,231.270 229.929,226.906 232.552 C 221.190 235.987,207.580 242.925,201.400 245.554 C 190.067 250.375,171.378 261.289,161.042 269.122 C 158.819 270.807,154.181 273.898,150.736 275.993 C 147.291 278.087,142.881 280.872,140.936 282.182 C 129.700 289.749,127.854 289.717,119.598 281.808 C 116.860 279.185,113.297 276.279,110.798 274.632 C 108.489 273.110,104.890 270.577,102.800 269.003 C 97.545 265.045,91.240 260.557,87.200 257.896 C 85.330 256.664,81.284 253.283,78.209 250.382 C 75.134 247.480,71.534 244.377,70.209 243.484 C 66.499 240.987,63.371 238.559,59.000 234.786 C 56.800 232.886,53.920 230.538,52.600 229.566 C 48.626 226.641,42.400 221.534,42.400 221.199 C 42.400 219.694,46.906 222.416,55.261 228.968 C 55.845 229.425,58.005 231.292,60.061 233.115 C 62.118 234.938,65.780 237.808,68.200 239.492 C 72.228 242.296,74.742 244.416,81.723 250.900 C 83.086 252.165,85.820 254.311,87.800 255.669 C 89.780 257.027,92.480 258.969,93.800 259.984 C 95.120 261.000,96.920 262.309,97.800 262.893 C 98.680 263.477,100.930 265.077,102.800 266.449 C 104.670 267.820,108.540 270.548,111.400 272.511 C 114.443 274.599,118.177 277.625,120.400 279.805 C 128.325 287.573,128.661 287.570,141.191 279.647 C 144.826 277.349,149.664 274.327,151.942 272.931 C 154.220 271.535,157.730 269.157,159.742 267.645 C 170.611 259.481,190.509 247.841,201.200 243.395 C 209.563 239.917,224.245 232.031,233.227 226.194 C 235.522 224.702,238.210 222.956,239.200 222.314 C 240.190 221.673,241.495 221.047,242.100 220.924 C 245.101 220.313,242.515 217.234,236.343 214.068 L 232.186 211.936 228.593 214.115 C 213.022 223.559,205.769 227.309,195.600 231.175 C 190.412 233.147,177.450 239.166,173.963 241.222 C 172.864 241.870,171.885 242.400,171.787 242.400 C 170.326 242.400,157.275 251.662,149.800 258.004 C 143.109 263.681,133.836 270.400,132.692 270.400 C 131.723 270.400,112.341 255.332,107.463 250.787 C 105.888 249.320,102.787 246.698,100.571 244.960 C 93.327 239.278,89.018 235.729,88.000 234.606 C 86.633 233.097,80.703 228.342,72.800 222.417 C 62.204 214.472,58.777 211.280,59.321 209.863 C 59.736 208.780,76.392 197.387,82.800 193.802 C 85.110 192.510,89.070 190.218,91.600 188.708 C 96.956 185.511,109.553 179.182,115.600 176.649 C 117.910 175.681,123.490 173.233,128.000 171.208 C 132.510 169.183,138.000 166.807,140.200 165.928 C 146.586 163.376,153.252 160.428,155.200 159.294 C 156.190 158.718,158.890 157.295,161.200 156.132 C 163.510 154.969,166.750 153.278,168.400 152.373 C 170.737 151.092,171.686 150.774,172.693 150.938 C 173.404 151.053,174.091 150.976,174.221 150.766 C 174.351 150.556,175.389 149.915,176.528 149.341 C 180.269 147.457,193.889 139.274,212.600 127.669 C 226.714 118.915,228.989 117.516,235.086 113.839 C 237.238 112.541,240.350 110.627,242.000 109.587 C 244.915 107.749,246.247 106.962,253.800 102.617 C 259.968 99.069,262.713 97.600,263.175 97.600 C 263.658 97.600,274.532 104.700,292.625 116.829 C 295.719 118.903,299.471 121.387,300.963 122.350 C 302.456 123.312,305.504 125.461,307.738 127.125 C 309.972 128.789,317.110 133.741,323.600 138.129 C 338.732 148.361,339.987 149.373,338.895 150.465 C 338.474 150.886,328.614 154.608,316.655 158.859 C 297.940 165.513,274.791 179.670,252.566 198.054 C 249.150 200.880,249.140 200.944,251.839 202.386 C 252.939 202.974,255.467 204.452,257.458 205.670 L 261.077 207.885 262.639 206.820 C 263.499 206.234,266.289 204.055,268.841 201.977 C 271.392 199.900,274.792 197.210,276.396 196.000 C 278.000 194.790,280.679 192.720,282.349 191.400 C 287.215 187.555,299.356 179.322,305.800 175.498 C 310.766 172.551,313.988 170.914,317.200 169.706 C 323.813 167.221,327.059 165.912,335.600 162.286 C 340.770 160.092,346.132 157.763,347.516 157.112 C 349.956 155.963,351.428 155.876,351.113 156.900 C 350.922 157.518,347.628 159.205,341.600 161.772 C 339.070 162.849,334.480 164.850,331.400 166.219 C 328.320 167.588,324.990 168.986,324.000 169.327 C 317.067 171.712,311.837 173.982,308.129 176.215 C 302.527 179.588,301.652 180.159,297.298 183.284 C 294.934 184.980,291.470 187.328,289.600 188.500 C 287.730 189.673,283.501 192.785,280.202 195.416 C 273.100 201.080,272.927 201.216,267.118 205.645 C 264.633 207.540,262.285 209.200,261.900 209.333 C 261.078 209.617,260.821 216.000,261.631 216.000 C 261.869 216.000,263.629 214.564,265.543 212.808 C 268.688 209.924,272.228 207.197,278.017 203.200 C 279.132 202.430,281.267 200.794,282.761 199.565 C 284.255 198.336,287.080 196.286,289.039 195.009 C 290.997 193.733,293.320 192.105,294.200 191.392 C 300.862 185.996,310.981 180.149,319.400 176.831 C 322.260 175.705,328.020 173.079,332.200 170.998 C 345.015 164.616,350.400 162.529,350.400 163.942 C 350.400 164.651,344.651 168.000,343.434 168.000 C 343.067 168.000,338.004 170.366,333.200 172.781 C 330.670 174.054,325.810 176.219,322.400 177.594 C 312.425 181.616,300.233 188.537,295.200 193.034 C 294.650 193.526,292.490 195.054,290.400 196.430 C 288.310 197.806,285.430 199.855,284.000 200.984 C 282.570 202.113,279.690 204.229,277.600 205.686 C 275.510 207.144,271.730 210.071,269.200 212.190 C 266.670 214.310,263.939 216.419,263.132 216.877 C 261.454 217.830,261.213 218.451,261.205 221.833 C 261.199 224.592,261.479 225.150,262.288 223.995 C 262.597 223.555,264.127 222.161,265.690 220.898 C 267.253 219.634,269.447 217.842,270.566 216.916 C 274.698 213.494,281.930 208.054,286.400 205.006 C 295.511 198.792,301.423 194.634,302.682 193.555 C 304.671 191.850,317.459 184.800,318.563 184.800 C 318.654 184.800,320.050 184.189,321.664 183.442 C 323.279 182.695,325.875 181.532,327.434 180.857 C 328.992 180.182,333.762 177.841,338.034 175.655 C 346.547 171.298,350.604 169.644,351.232 170.272 C 351.982 171.022,351.176 171.813,348.694 172.763 C 345.226 174.090,336.709 178.141,334.399 179.563 C 332.690 180.614,320.315 186.400,319.774 186.400 C 318.478 186.400,306.501 193.081,302.744 195.900 C 300.245 197.775,295.500 201.116,292.200 203.324 C 283.965 208.834,276.512 214.402,269.400 220.357 C 265.452 223.664,263.058 225.397,262.400 225.425 C 261.182 225.478,260.559 233.779,261.739 234.232 C 262.510 234.528,273.519 227.666,277.800 224.220 C 284.207 219.064,308.258 202.800,316.400 198.117 C 320.164 195.952,328.559 191.576,342.600 184.458 C 357.481 176.914,360.063 174.974,362.634 169.408 C 365.102 164.066,365.106 158.250,362.645 155.023 C 360.387 152.063,347.845 142.507,322.800 124.664 C 315.975 119.802,293.644 104.835,286.114 100.075 C 283.221 98.247,277.827 94.512,274.127 91.775 C 266.024 85.782,264.531 85.222,260.453 86.650 M248.770 113.158 C 242.531 116.829,234.344 121.746,231.400 123.590 C 229.640 124.692,226.040 126.884,223.400 128.460 C 220.760 130.035,214.280 134.064,209.000 137.411 C 203.720 140.758,197.923 144.329,196.117 145.347 C 194.311 146.364,191.194 148.191,189.190 149.406 C 187.185 150.622,184.478 152.155,183.173 152.814 C 180.499 154.163,180.336 154.464,181.900 155.164 C 182.505 155.435,184.136 156.392,185.523 157.291 L 188.047 158.925 195.323 158.849 C 208.184 158.715,219.365 161.080,228.406 165.847 C 238.672 171.259,243.720 180.477,242.346 191.300 C 241.738 196.087,241.737 196.055,242.488 196.538 C 243.046 196.897,243.423 196.751,244.488 195.761 C 245.210 195.090,247.149 193.564,248.798 192.370 C 250.447 191.177,253.507 188.835,255.598 187.167 C 271.720 174.305,285.774 165.406,302.084 157.732 C 311.160 153.462,310.687 153.833,309.202 152.141 C 305.388 147.797,305.425 142.130,309.289 139.020 L 310.600 137.965 308.607 136.179 C 307.511 135.197,303.788 132.460,300.333 130.097 C 284.435 119.222,280.833 116.828,278.502 115.583 L 276.005 114.250 274.502 114.970 C 268.225 117.982,256.432 116.895,253.206 113.007 C 252.018 111.575,251.426 111.596,248.770 113.158 M263.735 136.566 C 271.767 138.658,274.114 146.900,267.846 151.006 C 257.221 157.968,242.643 154.248,242.609 144.566 C 242.585 137.861,253.230 133.830,263.735 136.566 M159.628 163.766 C 158.843 164.712,147.411 170.042,135.800 174.876 C 133.160 175.975,129.830 177.420,128.400 178.086 C 126.970 178.753,123.910 180.147,121.600 181.186 C 105.416 188.460,99.620 191.528,84.887 200.620 C 81.282 202.844,81.315 202.721,83.902 204.275 C 91.220 208.673,91.669 216.703,84.771 219.813 C 82.637 220.775,82.532 220.615,88.468 225.481 C 91.365 227.857,95.107 230.970,96.783 232.400 C 98.460 233.830,102.345 236.932,105.416 239.294 C 108.487 241.655,112.394 244.670,114.098 245.994 C 117.595 248.711,117.482 248.675,119.277 247.630 C 126.407 243.477,138.474 244.466,145.836 249.807 C 146.620 250.375,146.848 250.284,149.436 248.371 C 162.864 238.446,175.518 231.665,195.758 223.548 C 204.818 219.915,204.736 219.954,213.503 215.108 C 219.501 211.792,221.645 210.363,219.750 210.944 C 191.598 219.571,161.821 206.006,158.746 183.152 C 158.004 177.639,159.700 170.850,162.805 166.902 C 163.727 165.731,163.837 164.800,163.054 164.800 C 162.754 164.800,162.050 164.440,161.491 164.000 C 160.279 163.047,160.230 163.041,159.628 163.766 M138.665 204.557 C 146.746 206.718,149.689 210.956,147.048 216.628 C 142.099 227.257,118.000 224.214,118.000 212.961 C 118.000 205.780,128.012 201.709,138.665 204.557 M48.142 231.981 C 49.849 233.290,52.271 235.245,53.523 236.325 C 56.307 238.726,62.561 243.807,68.536 248.522 C 73.298 252.280,78.305 256.435,84.912 262.113 C 91.626 267.883,94.026 269.779,97.600 272.137 C 109.838 280.211,114.189 283.473,118.922 288.120 C 127.387 296.431,127.981 296.466,138.938 289.314 C 141.172 287.856,146.157 284.832,150.015 282.595 C 153.873 280.358,159.093 277.072,161.615 275.293 C 168.205 270.643,169.548 269.729,171.905 268.287 C 173.063 267.579,176.123 265.570,178.705 263.822 C 185.977 258.900,195.799 253.425,202.800 250.392 C 206.257 248.895,218.872 242.274,223.000 239.790 C 224.540 238.864,227.060 237.422,228.600 236.586 C 230.140 235.751,233.060 234.026,235.089 232.753 C 238.659 230.515,239.231 230.251,240.300 230.353 C 240.946 230.414,240.957 232.000,240.312 232.000 C 239.815 232.000,236.032 234.230,229.200 238.550 C 225.998 240.575,220.855 243.354,207.000 250.548 C 205.900 251.119,202.030 253.055,198.400 254.849 C 189.628 259.186,185.447 261.524,180.400 264.915 C 178.090 266.467,173.230 269.712,169.600 272.125 C 165.970 274.538,161.560 277.552,159.800 278.823 C 158.040 280.093,153.810 282.708,150.400 284.633 C 146.990 286.559,143.120 288.850,141.800 289.725 C 128.222 298.720,127.485 298.726,118.013 289.936 C 113.061 285.341,106.496 280.216,102.400 277.748 C 96.955 274.467,92.388 271.166,87.962 267.313 C 85.233 264.937,82.194 262.364,81.209 261.596 C 80.224 260.828,78.334 259.233,77.009 258.052 C 75.684 256.871,71.990 253.857,68.800 251.355 C 65.610 248.852,60.210 244.469,56.800 241.614 C 53.390 238.758,49.025 235.220,47.100 233.751 C 44.924 232.090,43.600 230.800,43.600 230.340 C 43.600 229.039,44.933 229.520,48.142 231.981 M241.800 238.204 C 241.800 238.819,240.334 239.782,235.250 242.506 C 231.648 244.435,227.058 247.031,225.050 248.274 C 218.436 252.367,214.688 254.455,207.400 258.106 C 203.440 260.090,197.728 262.953,194.706 264.468 C 191.684 265.984,187.994 268.149,186.506 269.280 C 185.018 270.411,181.280 272.999,178.200 275.031 C 175.120 277.063,170.206 280.317,167.281 282.263 C 160.231 286.951,157.725 288.493,153.269 290.886 C 151.217 291.988,146.267 294.879,142.269 297.311 C 127.438 306.331,127.447 306.330,119.000 299.268 C 114.202 295.256,108.192 290.960,100.545 286.075 C 90.993 279.972,87.264 277.127,78.400 269.178 C 76.530 267.501,73.748 265.192,72.219 264.048 C 70.689 262.903,66.583 259.248,63.094 255.924 C 57.154 250.264,54.732 248.198,47.011 242.201 C 43.268 239.295,42.142 237.600,43.952 237.600 C 45.059 237.600,56.150 246.693,64.000 254.037 C 66.750 256.609,69.720 259.382,70.600 260.198 C 71.480 261.014,73.479 262.636,75.043 263.802 C 76.607 264.968,80.299 268.054,83.248 270.661 C 90.945 277.465,91.452 277.848,99.400 282.891 C 107.612 288.101,115.807 293.969,120.881 298.273 C 127.291 303.709,127.759 303.681,138.600 297.217 C 140.580 296.036,145.557 293.140,149.660 290.781 C 153.763 288.421,158.443 285.629,160.060 284.576 C 161.677 283.522,166.252 280.561,170.227 277.995 C 174.202 275.430,179.872 271.622,182.827 269.534 C 188.030 265.857,192.067 263.644,211.278 253.937 C 215.171 251.970,219.761 249.412,221.478 248.253 C 225.247 245.709,228.003 244.073,233.767 240.959 C 236.169 239.662,238.689 238.282,239.367 237.893 C 240.874 237.029,241.800 237.147,241.800 238.204 M0.006 392.500 L 0.000 400.000 7.424 400.000 C 12.271 400.000,14.761 399.861,14.600 399.600 C 14.464 399.380,14.024 399.200,13.622 399.200 C 9.551 399.200,0.843 390.717,0.794 386.704 C 0.791 386.427,0.613 385.930,0.400 385.600 C 0.142 385.201,0.010 387.510,0.006 392.500 M399.442 386.200 C 398.588 389.066,396.573 392.576,394.606 394.622 C 393.611 395.657,389.253 398.331,387.800 398.798 C 386.920 399.081,385.930 399.423,385.600 399.556 C 385.270 399.690,388.311 399.849,392.357 399.909 C 396.404 399.969,399.783 399.950,399.867 399.867 C 399.950 399.783,399.969 396.404,399.909 392.357 C 399.833 387.254,399.690 385.368,399.442 386.200 " stroke="none" fill="#e8e9e8" fill-rule="evenodd"></path><path id="path1" d="M16.400 0.600 C 16.126 0.930,15.382 1.200,14.746 1.200 C 14.110 1.200,13.277 1.360,12.895 1.556 C 12.513 1.752,11.316 2.335,10.236 2.852 C 7.717 4.057,4.057 7.717,2.852 10.236 C 2.335 11.316,1.752 12.513,1.556 12.895 C 1.360 13.277,1.199 14.177,1.198 14.895 C 1.196 15.613,0.926 16.716,0.598 17.346 C -0.302 19.071,-0.287 381.387,0.613 382.576 C 0.936 383.004,1.200 384.041,1.200 384.882 C 1.200 385.723,1.360 386.723,1.556 387.105 C 1.752 387.487,2.308 388.632,2.792 389.648 C 4.186 392.575,7.881 396.177,10.800 397.455 C 11.570 397.792,12.513 398.232,12.895 398.434 C 13.277 398.635,14.110 398.800,14.746 398.800 C 15.382 398.800,16.126 399.070,16.400 399.400 C 17.158 400.314,382.842 400.314,383.600 399.400 C 383.874 399.070,384.618 398.800,385.254 398.800 C 385.890 398.800,386.768 398.620,387.205 398.400 C 387.642 398.180,388.360 397.820,388.800 397.600 C 392.609 395.696,395.737 392.737,397.208 389.648 C 397.692 388.632,398.248 387.487,398.444 387.105 C 398.640 386.723,398.800 385.723,398.800 384.882 C 398.800 384.041,399.064 383.004,399.387 382.576 C 400.278 381.399,400.278 18.601,399.387 17.424 C 399.064 16.996,398.800 15.959,398.800 15.118 C 398.800 14.277,398.640 13.277,398.444 12.895 C 398.248 12.513,397.665 11.316,397.148 10.236 C 395.943 7.717,392.283 4.057,389.764 2.852 C 388.684 2.335,387.487 1.752,387.105 1.556 C 386.723 1.360,385.890 1.200,385.254 1.200 C 384.618 1.200,383.874 0.930,383.600 0.600 C 382.842 -0.314,17.158 -0.314,16.400 0.600 M266.227 84.991 C 267.495 85.370,269.486 86.596,271.800 88.421 C 273.780 89.984,281.430 95.252,288.800 100.128 C 313.941 116.763,327.077 125.721,331.800 129.451 C 333.340 130.667,336.165 132.726,338.077 134.026 C 343.027 137.391,346.719 140.153,358.502 149.307 C 366.010 155.141,367.768 160.637,364.615 168.421 C 361.725 175.557,358.973 177.743,342.200 186.224 C 335.380 189.673,329.620 192.629,329.400 192.793 C 329.180 192.958,327.110 194.054,324.800 195.230 C 314.426 200.510,297.432 211.434,283.772 221.602 C 275.783 227.550,270.507 231.105,263.600 235.197 C 250.660 242.862,245.289 246.185,243.963 247.342 C 241.065 249.873,226.013 259.600,224.995 259.600 C 224.879 259.600,224.113 260.021,223.292 260.536 C 219.866 262.687,209.955 267.996,201.200 272.370 C 192.268 276.833,192.295 276.817,185.853 281.509 C 172.014 291.587,159.749 299.417,147.800 305.802 C 145.820 306.860,143.536 308.143,142.724 308.653 C 129.250 317.115,124.133 317.381,114.755 310.111 C 110.420 306.751,106.611 303.976,98.814 298.501 C 96.072 296.576,92.432 293.920,90.726 292.600 C 89.019 291.280,86.133 289.090,84.312 287.733 C 82.490 286.375,78.817 283.405,76.150 281.133 C 73.482 278.860,69.342 275.428,66.950 273.507 C 55.285 264.142,39.412 249.269,37.380 245.801 C 35.262 242.189,34.710 238.382,34.653 227.000 C 34.551 206.980,36.372 204.730,67.600 186.286 C 70.606 184.510,76.724 181.145,87.000 175.615 C 94.314 171.679,99.259 169.239,103.600 167.424 C 106.130 166.367,109.100 165.106,110.200 164.622 C 111.300 164.138,112.830 163.512,113.600 163.230 C 114.370 162.949,115.360 162.561,115.800 162.369 C 118.068 161.375,127.987 157.276,129.200 156.832 C 130.497 156.357,131.319 156.029,133.400 155.158 C 133.840 154.974,135.370 154.383,136.800 153.844 C 151.974 148.131,169.924 139.072,182.800 130.628 C 189.181 126.443,194.957 122.765,197.000 121.585 C 197.880 121.077,202.110 118.476,206.400 115.806 C 214.192 110.957,215.774 110.015,220.100 107.655 C 225.119 104.917,227.213 103.750,232.400 100.802 C 235.370 99.114,240.050 96.504,242.800 95.001 C 247.904 92.212,249.498 91.283,254.835 87.989 C 258.345 85.822,261.341 84.616,263.627 84.446 C 263.972 84.421,265.142 84.666,266.227 84.991 " stroke="none" fill="#4cf45c" fill-rule="evenodd"></path><path id="path2" d="M262.180 98.754 C 261.971 98.949,260.000 100.055,257.800 101.211 C 255.600 102.367,251.280 104.841,248.200 106.709 C 234.683 114.907,231.533 116.800,231.402 116.800 C 231.326 116.800,227.514 119.166,222.931 122.057 C 218.349 124.949,212.980 128.303,211.000 129.511 C 209.020 130.719,203.980 133.821,199.800 136.405 C 191.775 141.365,185.079 145.324,178.800 148.822 C 176.710 149.986,174.856 151.178,174.679 151.470 C 174.455 151.843,173.890 151.928,172.797 151.753 C 171.411 151.532,170.816 151.746,167.518 153.660 C 165.473 154.846,162.270 156.516,160.400 157.371 C 158.530 158.226,156.730 159.136,156.400 159.394 C 155.483 160.111,152.297 161.561,141.556 166.153 C 136.142 168.468,129.212 171.472,126.156 172.831 C 123.100 174.189,118.980 175.980,117.000 176.812 C 108.137 180.535,98.655 185.390,86.800 192.275 C 75.430 198.878,60.000 209.335,60.000 210.438 C 60.000 211.558,66.306 216.779,79.600 226.666 C 81.910 228.384,85.240 231.164,87.000 232.843 C 88.760 234.522,91.480 236.865,93.044 238.048 C 96.921 240.981,103.530 246.393,107.400 249.804 C 112.816 254.577,117.148 258.101,123.400 262.817 C 126.700 265.306,130.074 267.880,130.898 268.537 C 132.254 269.618,132.499 269.683,133.487 269.233 C 135.488 268.321,144.950 261.337,148.778 257.947 C 153.252 253.984,161.574 247.724,166.562 244.570 C 173.024 240.484,185.502 234.435,196.142 230.230 C 205.768 226.426,219.086 219.443,228.755 213.130 C 232.062 210.971,232.433 210.886,233.938 211.950 C 234.522 212.363,236.440 213.438,238.200 214.339 C 244.383 217.507,244.074 216.663,244.583 231.768 C 245.041 245.343,244.973 245.070,247.472 243.471 C 248.312 242.933,251.650 240.934,254.889 239.027 L 260.779 235.561 260.762 221.983 L 260.745 208.404 257.072 206.221 C 255.053 205.021,252.410 203.527,251.200 202.901 C 247.478 200.974,247.804 200.523,259.000 192.130 C 260.760 190.810,264.885 187.700,268.166 185.217 C 274.780 180.213,286.172 172.614,290.800 170.118 C 292.450 169.228,295.150 167.774,296.800 166.888 C 302.271 163.949,310.929 160.101,316.234 158.252 C 319.113 157.248,323.433 155.651,325.834 154.702 C 328.235 153.753,332.045 152.355,334.300 151.597 C 340.018 149.673,340.605 150.433,325.600 140.333 C 320.210 136.705,313.640 132.185,311.000 130.290 C 308.360 128.394,300.170 122.800,292.800 117.858 C 285.430 112.916,278.500 108.251,277.400 107.490 C 272.746 104.273,263.461 98.400,263.029 98.400 C 262.771 98.400,262.389 98.559,262.180 98.754 M252.638 111.641 C 256.381 115.778,267.633 117.448,273.240 114.698 C 275.860 113.413,276.036 113.396,277.720 114.248 C 279.649 115.224,298.434 127.746,303.000 131.100 C 312.151 137.821,312.216 137.899,310.003 139.535 C 306.123 142.403,305.971 147.513,309.653 151.332 C 312.215 153.991,312.529 153.669,303.142 158.012 C 288.532 164.772,275.281 172.866,262.200 183.022 C 258.900 185.584,253.448 189.735,250.085 192.246 C 246.722 194.758,243.868 197.079,243.742 197.406 C 243.126 199.013,240.557 196.597,240.981 194.809 C 243.502 184.179,239.991 174.514,231.400 168.437 C 222.941 162.454,204.925 158.279,192.751 159.482 L 188.345 159.917 185.673 158.283 C 184.203 157.385,182.132 156.227,181.072 155.710 C 178.553 154.483,178.724 154.200,183.429 151.802 C 187.756 149.597,195.643 144.955,203.800 139.813 C 218.940 130.269,220.470 129.328,237.275 119.245 C 242.184 116.300,247.280 113.196,248.600 112.349 C 251.387 110.559,251.621 110.518,252.638 111.641 M251.792 136.988 C 245.835 138.285,243.200 140.677,243.200 144.788 C 243.200 150.211,248.269 153.681,256.200 153.687 C 260.296 153.690,260.480 153.645,265.423 151.400 C 269.842 149.393,271.514 145.722,269.925 141.515 C 268.480 137.688,259.209 135.373,251.792 136.988 M336.523 162.545 C 335.381 163.027,334.316 163.551,334.156 163.710 C 333.619 164.247,334.639 164.005,336.306 163.200 C 337.216 162.760,338.139 162.400,338.357 162.400 C 338.575 162.400,338.864 162.220,339.000 162.000 C 339.344 161.443,338.912 161.538,336.523 162.545 M162.241 163.620 C 164.820 164.868,164.963 165.218,163.641 167.032 C 152.865 181.805,162.335 201.842,183.800 209.685 C 195.289 213.883,208.448 213.857,220.975 209.612 C 226.724 207.663,227.039 208.275,221.833 211.278 C 220.275 212.176,218.010 213.499,216.800 214.218 C 212.409 216.828,202.416 221.608,194.200 225.031 C 179.842 231.011,179.186 231.307,171.800 235.137 C 164.921 238.704,158.788 242.539,150.464 248.477 C 146.901 251.018,146.595 251.159,145.825 250.602 C 138.213 245.104,128.663 244.072,120.391 247.853 L 117.314 249.259 114.907 247.530 C 112.258 245.627,102.344 237.845,97.550 233.906 C 95.872 232.528,92.546 229.810,90.158 227.866 C 85.645 224.193,82.669 221.559,82.230 220.849 C 82.086 220.616,82.943 219.977,84.190 219.387 C 91.103 216.117,90.539 208.888,83.030 204.524 C 81.946 203.894,80.991 203.174,80.908 202.924 C 80.452 201.556,102.674 188.916,116.400 182.735 C 119.370 181.398,123.121 179.695,124.736 178.952 C 126.350 178.208,127.736 177.600,127.815 177.600 C 128.039 177.600,147.362 169.077,151.400 167.197 C 153.380 166.275,155.935 165.088,157.077 164.559 C 158.220 164.030,159.265 163.418,159.401 163.199 C 159.761 162.616,160.347 162.703,162.241 163.620 M306.000 176.062 C 305.230 176.504,304.240 177.227,303.800 177.667 C 303.020 178.446,306.918 176.386,307.780 175.563 C 308.431 174.941,307.491 175.204,306.000 176.062 M324.000 175.675 C 322.657 176.240,321.565 176.669,320.600 177.010 C 320.160 177.166,320.007 177.371,320.259 177.466 C 320.512 177.562,321.862 177.106,323.259 176.454 C 325.636 175.345,326.205 174.747,324.000 175.675 M337.407 176.614 C 335.162 177.753,333.958 178.743,335.800 177.935 C 337.642 177.127,340.249 175.610,339.800 175.606 C 339.580 175.605,338.503 176.058,337.407 176.614 M318.200 178.000 C 318.064 178.220,318.223 178.400,318.553 178.400 C 318.883 178.400,319.264 178.220,319.400 178.000 C 319.536 177.780,319.377 177.600,319.047 177.600 C 318.717 177.600,318.336 177.780,318.200 178.000 M303.283 186.057 C 302.559 186.520,302.054 186.987,302.160 187.094 C 302.355 187.289,304.800 185.695,304.800 185.373 C 304.800 185.106,304.692 185.155,303.283 186.057 M307.800 191.027 C 306.040 192.029,304.330 193.139,304.000 193.495 C 303.537 193.994,303.673 193.973,304.594 193.400 C 305.251 192.992,306.739 192.158,307.902 191.547 C 310.390 190.237,311.936 189.199,311.389 189.203 C 311.175 189.205,309.560 190.025,307.800 191.027 M290.081 203.372 C 288.429 204.540,288.168 204.800,288.648 204.800 C 288.858 204.800,289.653 204.267,290.415 203.616 C 292.072 202.200,291.908 202.080,290.081 203.372 M275.900 205.414 C 274.855 206.180,274.000 206.902,274.000 207.018 C 274.000 207.286,275.459 206.510,276.332 205.777 C 276.699 205.468,277.360 204.947,277.800 204.620 C 278.240 204.293,278.420 204.024,278.200 204.023 C 277.980 204.021,276.945 204.647,275.900 205.414 M125.600 205.186 C 112.501 210.043,118.391 222.400,133.805 222.400 C 147.862 222.400,152.783 209.977,140.394 205.767 C 136.083 204.302,128.758 204.014,125.600 205.186 M54.957 230.199 C 55.373 230.514,56.723 231.729,57.957 232.898 C 60.814 235.607,63.275 237.600,63.763 237.600 C 64.184 237.600,62.998 236.494,58.151 232.367 C 56.364 230.845,54.744 229.606,54.551 229.613 C 54.358 229.620,54.541 229.883,54.957 230.199 M44.400 230.677 C 44.400 230.870,44.925 231.338,45.568 231.717 C 46.210 232.097,47.785 233.246,49.068 234.272 C 52.456 236.982,52.400 236.945,52.400 236.504 C 52.400 236.287,51.126 235.140,49.568 233.955 C 46.019 231.253,44.400 230.227,44.400 230.677 M225.200 232.084 C 224.430 232.539,222.454 233.611,220.810 234.466 C 218.005 235.924,216.691 236.800,217.308 236.800 C 217.455 236.800,218.217 236.440,219.000 236.000 C 219.783 235.560,220.576 235.200,220.762 235.200 C 221.164 235.200,227.200 231.606,227.200 231.366 C 227.200 231.045,226.586 231.265,225.200 232.084 M235.200 233.600 C 234.650 234.030,234.380 234.382,234.600 234.382 C 234.820 234.382,235.450 234.030,236.000 233.600 C 236.550 233.170,236.820 232.818,236.600 232.818 C 236.380 232.818,235.750 233.170,235.200 233.600 M227.069 238.267 C 225.787 239.040,224.832 239.765,224.946 239.879 C 225.060 239.994,225.659 239.746,226.277 239.329 C 226.895 238.912,227.895 238.322,228.500 238.018 C 229.105 237.714,229.600 237.315,229.600 237.132 C 229.600 236.712,229.796 236.625,227.069 238.267 M239.500 238.629 C 238.052 239.415,238.100 239.663,239.600 239.140 C 240.260 238.910,240.800 238.559,240.800 238.361 C 240.800 237.913,240.830 237.907,239.500 238.629 M44.188 238.781 C 44.318 238.991,45.004 239.562,45.712 240.050 L 47.000 240.936 45.825 239.668 C 44.739 238.495,43.646 237.903,44.188 238.781 M57.600 240.897 C 57.600 241.177,65.948 248.470,67.523 249.566 C 69.934 251.244,69.294 250.119,66.724 248.161 C 65.336 247.103,64.110 246.136,64.000 246.013 C 63.890 245.890,62.810 244.984,61.600 244.000 C 60.390 243.016,59.310 242.119,59.200 242.005 C 58.681 241.472,57.600 240.723,57.600 240.897 M76.375 247.536 C 78.891 249.982,81.048 251.885,81.168 251.765 C 81.384 251.549,76.690 246.902,74.786 245.446 C 74.244 245.031,73.350 244.331,72.800 243.891 C 72.250 243.450,73.859 245.091,76.375 247.536 M52.000 244.925 C 52.000 245.024,52.661 245.609,53.468 246.225 C 54.276 246.841,54.811 247.141,54.656 246.891 C 54.340 246.379,52.000 244.647,52.000 244.925 M196.400 246.421 C 195.630 246.834,193.920 247.688,192.600 248.319 C 188.631 250.217,185.682 252.000,186.512 252.000 C 186.778 252.000,198.438 246.057,198.767 245.754 C 199.247 245.310,197.613 245.771,196.400 246.421 M55.200 247.409 C 55.200 247.650,55.910 248.324,60.332 252.284 C 62.717 254.420,62.368 253.281,59.945 251.022 C 57.495 248.736,55.200 246.989,55.200 247.409 M208.200 248.529 C 206.880 249.233,204.834 250.220,203.652 250.723 C 202.471 251.227,201.581 251.715,201.675 251.808 C 202.149 252.282,209.820 248.713,211.118 247.415 C 211.656 246.877,210.397 247.358,208.200 248.529 M222.881 248.172 C 222.156 248.684,221.436 249.239,221.281 249.403 C 220.864 249.847,223.273 248.559,224.200 247.843 C 225.475 246.859,224.337 247.142,222.881 248.172 M218.300 251.029 C 217.695 251.357,217.200 251.710,217.200 251.813 C 217.200 252.199,217.832 251.957,218.800 251.200 C 219.989 250.270,219.811 250.209,218.300 251.029 M71.600 252.389 C 73.864 254.400,77.846 257.434,77.265 256.704 C 76.624 255.900,71.651 251.848,70.800 251.436 C 70.470 251.276,70.830 251.705,71.600 252.389 M199.465 252.647 C 198.840 252.986,198.406 253.339,198.500 253.433 C 198.687 253.620,201.200 252.446,201.200 252.171 C 201.200 251.862,200.618 252.022,199.465 252.647 M84.974 255.150 C 85.399 255.632,86.389 256.416,87.174 256.892 C 87.958 257.368,88.690 257.875,88.800 258.019 C 89.072 258.374,92.324 260.400,92.623 260.400 C 93.033 260.400,90.732 258.645,87.400 256.415 C 85.640 255.237,84.548 254.668,84.974 255.150 M69.000 260.380 C 70.910 262.357,77.600 267.458,77.600 266.937 C 77.600 266.654,77.772 266.796,72.636 262.859 C 70.526 261.242,68.800 259.800,68.800 259.656 C 68.800 259.511,68.395 259.149,67.900 258.851 C 67.405 258.553,67.900 259.241,69.000 260.380 M93.319 261.069 C 93.464 261.304,95.252 262.622,97.292 263.999 C 99.331 265.375,101.404 266.869,101.898 267.319 C 102.393 267.768,102.899 268.034,103.025 267.909 C 103.150 267.783,102.566 267.178,101.726 266.564 C 100.887 265.950,99.283 264.762,98.163 263.924 C 97.043 263.086,95.991 262.400,95.825 262.400 C 95.659 262.400,94.968 262.005,94.290 261.521 C 93.611 261.038,93.174 260.835,93.319 261.069 M170.000 261.636 C 169.336 262.179,169.269 262.315,169.800 262.040 C 171.105 261.366,171.828 260.812,171.400 260.815 C 171.180 260.817,170.550 261.186,170.000 261.636 M84.038 262.651 C 84.102 263.241,89.241 267.692,89.528 267.405 C 89.771 267.162,88.201 265.578,86.153 264.000 C 85.725 263.670,85.065 263.153,84.687 262.851 C 84.309 262.549,84.017 262.459,84.038 262.651 M166.692 263.483 C 165.863 264.052,165.262 264.595,165.356 264.689 C 165.527 264.860,168.800 262.824,168.800 262.547 C 168.800 262.204,168.106 262.513,166.692 263.483 M179.600 264.033 L 178.600 264.848 179.900 264.214 C 180.615 263.865,181.200 263.494,181.200 263.390 C 181.200 262.992,180.563 263.248,179.600 264.033 M192.212 264.431 C 189.701 265.677,188.141 266.824,190.200 265.911 C 192.170 265.038,194.800 263.597,194.800 263.392 C 194.800 263.136,194.922 263.087,192.212 264.431 M84.400 273.352 C 86.637 275.777,92.813 280.456,92.791 279.709 C 92.786 279.539,91.379 278.356,89.665 277.080 C 87.951 275.804,86.108 274.364,85.569 273.880 C 83.631 272.137,83.028 271.865,84.400 273.352 M95.200 272.190 C 95.200 272.294,95.785 272.665,96.500 273.014 L 97.800 273.648 96.800 272.833 C 95.837 272.048,95.200 271.792,95.200 272.190 M98.800 274.418 C 101.489 276.571,107.200 280.186,107.200 279.737 C 107.200 279.328,105.495 277.978,103.600 276.888 C 102.610 276.318,101.048 275.345,100.128 274.726 C 98.210 273.434,97.310 273.226,98.800 274.418 M148.759 275.712 C 146.281 277.137,145.095 278.028,145.345 278.278 C 145.525 278.458,151.200 274.874,151.200 274.581 C 151.200 274.312,151.179 274.322,148.759 275.712 M162.205 275.638 C 159.624 277.274,156.413 279.788,157.308 279.470 C 158.699 278.977,165.059 274.400,164.354 274.400 C 164.245 274.400,163.278 274.957,162.205 275.638 M175.400 275.600 C 174.520 276.242,173.661 276.775,173.491 276.784 C 173.010 276.809,169.964 278.897,170.145 279.078 C 170.414 279.347,177.600 274.977,177.600 274.543 C 177.600 274.177,176.869 274.528,175.400 275.600 M114.600 276.224 C 115.260 276.811,116.340 277.747,117.000 278.306 C 117.660 278.864,118.515 279.592,118.900 279.923 C 119.285 280.253,119.600 280.401,119.600 280.251 C 119.600 279.697,116.041 276.443,114.743 275.811 L 113.400 275.157 114.600 276.224 M141.500 280.229 C 140.895 280.557,140.400 280.910,140.400 281.013 C 140.400 281.432,141.167 281.154,142.056 280.413 C 143.181 279.476,142.999 279.415,141.500 280.229 M101.800 285.807 C 102.240 286.166,102.960 286.635,103.400 286.851 L 104.200 287.244 103.400 286.593 C 102.960 286.234,102.240 285.765,101.800 285.549 L 101.000 285.156 101.800 285.807 M118.518 289.400 C 120.893 291.763,122.946 293.587,123.079 293.454 C 123.213 293.320,122.844 292.835,122.260 292.376 C 121.677 291.917,120.344 290.636,119.299 289.529 C 118.255 288.423,116.680 286.974,115.800 286.310 C 114.920 285.646,116.143 287.036,118.518 289.400 M105.603 288.280 C 105.605 288.456,106.705 289.308,108.047 290.172 C 109.390 291.037,110.693 291.943,110.944 292.185 C 111.625 292.842,114.483 294.458,114.225 294.040 C 113.860 293.450,105.600 287.931,105.603 288.280 M136.872 291.443 C 135.922 292.012,135.222 292.555,135.316 292.649 C 135.564 292.898,138.800 291.112,138.800 290.726 C 138.800 290.282,138.824 290.274,136.872 291.443 M149.065 291.847 C 148.440 292.186,148.015 292.548,148.120 292.653 C 148.224 292.757,148.915 292.474,149.655 292.023 C 151.213 291.073,150.748 290.935,149.065 291.847 M133.700 293.288 C 133.205 293.527,132.800 293.879,132.800 294.070 C 132.800 294.262,133.250 294.124,133.800 293.763 C 135.267 292.802,135.216 292.557,133.700 293.288 M126.800 295.600 C 127.130 295.813,127.760 295.978,128.200 295.966 L 129.000 295.944 128.200 295.600 C 127.004 295.086,126.005 295.086,126.800 295.600 M131.253 302.253 C 130.513 302.576,130.001 302.934,130.116 303.050 C 130.337 303.271,132.800 302.115,132.800 301.790 C 132.800 301.563,132.913 301.529,131.253 302.253 M125.376 302.967 C 125.861 303.362,126.839 303.580,127.976 303.547 L 129.800 303.493 128.000 303.208 C 127.010 303.051,125.840 302.790,125.400 302.629 C 124.611 302.339,124.611 302.344,125.376 302.967 " stroke="none" fill="#575558" fill-rule="evenodd"></path><path id="path3" d="M261.000 98.531 C 260.120 99.039,257.690 100.418,255.600 101.595 C 250.172 104.651,245.459 107.424,242.000 109.595 C 240.350 110.631,237.238 112.541,235.086 113.839 C 228.989 117.516,226.714 118.915,212.600 127.669 C 193.889 139.274,180.269 147.457,176.528 149.341 C 175.389 149.915,174.351 150.556,174.221 150.766 C 174.091 150.976,173.404 151.053,172.693 150.938 C 171.686 150.774,170.737 151.092,168.400 152.373 C 166.750 153.278,163.510 154.969,161.200 156.132 C 158.890 157.295,156.190 158.718,155.200 159.294 C 153.252 160.428,146.586 163.376,140.200 165.928 C 138.000 166.807,132.510 169.183,128.000 171.208 C 123.490 173.233,117.910 175.681,115.600 176.649 C 109.553 179.182,96.956 185.511,91.600 188.708 C 89.070 190.218,85.110 192.510,82.800 193.802 C 76.392 197.387,59.736 208.780,59.321 209.863 C 58.777 211.280,62.204 214.472,72.800 222.417 C 80.703 228.342,86.633 233.097,88.000 234.606 C 89.018 235.729,93.327 239.278,100.571 244.960 C 102.787 246.698,105.888 249.320,107.463 250.787 C 112.341 255.332,131.723 270.400,132.692 270.400 C 133.836 270.400,143.109 263.681,149.800 258.004 C 157.275 251.662,170.326 242.400,171.787 242.400 C 171.885 242.400,172.864 241.870,173.963 241.222 C 177.450 239.166,190.412 233.147,195.600 231.175 C 205.769 227.309,213.022 223.559,228.593 214.115 L 232.186 211.936 236.343 214.068 C 242.515 217.234,245.101 220.313,242.100 220.924 C 241.495 221.047,240.190 221.673,239.200 222.314 C 238.210 222.956,235.522 224.702,233.227 226.194 C 224.245 232.031,209.563 239.917,201.200 243.395 C 190.509 247.841,170.611 259.481,159.742 267.645 C 157.730 269.157,154.220 271.535,151.942 272.931 C 149.664 274.327,144.826 277.349,141.191 279.647 C 128.661 287.570,128.325 287.573,120.400 279.805 C 118.177 277.625,114.443 274.599,111.400 272.511 C 108.540 270.548,104.670 267.820,102.800 266.449 C 100.930 265.077,98.680 263.477,97.800 262.893 C 96.920 262.309,95.120 261.000,93.800 259.984 C 92.480 258.969,89.780 257.027,87.800 255.669 C 85.820 254.311,83.086 252.165,81.723 250.900 C 74.742 244.416,72.228 242.296,68.200 239.492 C 65.780 237.808,62.118 234.938,60.061 233.115 C 58.005 231.292,55.845 229.425,55.261 228.968 C 46.906 222.416,42.400 219.694,42.400 221.199 C 42.400 221.534,48.626 226.641,52.600 229.566 C 53.920 230.538,56.800 232.886,59.000 234.786 C 63.371 238.559,66.499 240.987,70.209 243.484 C 71.534 244.377,75.134 247.480,78.209 250.382 C 81.284 253.283,85.330 256.664,87.200 257.896 C 91.240 260.557,97.545 265.045,102.800 269.003 C 104.890 270.577,108.489 273.110,110.798 274.632 C 113.297 276.279,116.860 279.185,119.598 281.808 C 127.854 289.717,129.700 289.749,140.936 282.182 C 142.881 280.872,147.291 278.087,150.736 275.993 C 154.181 273.898,158.819 270.807,161.042 269.122 C 171.378 261.289,190.067 250.375,201.400 245.554 C 207.580 242.925,221.190 235.987,226.906 232.552 C 231.270 229.929,240.549 223.670,242.000 222.370 L 243.400 221.116 243.648 227.258 C 244.314 243.780,244.284 245.039,243.192 246.277 L 242.200 247.400 243.200 246.532 C 243.750 246.054,244.962 245.244,245.894 244.732 C 249.285 242.867,254.800 239.539,254.800 239.358 C 254.800 239.114,253.804 239.656,249.458 242.264 C 247.481 243.450,245.669 244.357,245.431 244.278 C 245.147 244.184,244.858 239.908,244.583 231.768 C 244.074 216.663,244.383 217.507,238.200 214.339 C 236.440 213.438,234.522 212.363,233.938 211.950 C 232.433 210.886,232.062 210.971,228.755 213.130 C 219.086 219.443,205.768 226.426,196.142 230.230 C 185.502 234.435,173.024 240.484,166.562 244.570 C 161.574 247.724,153.252 253.984,148.778 257.947 C 144.950 261.337,135.488 268.321,133.487 269.233 C 132.499 269.683,132.254 269.618,130.898 268.537 C 130.074 267.880,126.700 265.306,123.400 262.817 C 117.148 258.101,112.816 254.577,107.400 249.804 C 103.530 246.393,96.921 240.981,93.044 238.048 C 91.480 236.865,88.760 234.522,87.000 232.843 C 85.240 231.164,81.910 228.384,79.600 226.666 C 66.306 216.779,60.000 211.558,60.000 210.438 C 60.000 209.335,75.430 198.878,86.800 192.275 C 98.655 185.390,108.137 180.535,117.000 176.812 C 118.980 175.980,123.100 174.189,126.156 172.831 C 129.212 171.472,136.142 168.468,141.556 166.153 C 152.297 161.561,155.483 160.111,156.400 159.394 C 156.730 159.136,158.530 158.226,160.400 157.371 C 162.270 156.516,165.473 154.846,167.518 153.660 C 170.816 151.746,171.411 151.532,172.797 151.753 C 173.890 151.928,174.455 151.843,174.679 151.470 C 174.856 151.178,176.710 149.986,178.800 148.822 C 185.079 145.324,191.775 141.365,199.800 136.405 C 203.980 133.821,209.020 130.719,211.000 129.511 C 212.980 128.303,218.349 124.949,222.931 122.057 C 227.514 119.166,231.326 116.800,231.402 116.800 C 231.533 116.800,234.683 114.907,248.200 106.709 C 251.280 104.841,255.600 102.367,257.800 101.211 C 260.000 100.055,261.971 98.949,262.180 98.754 C 262.389 98.559,262.771 98.400,263.029 98.400 C 263.461 98.400,272.746 104.273,277.400 107.490 C 278.500 108.251,285.430 112.916,292.800 117.858 C 300.170 122.800,308.360 128.394,311.000 130.290 C 313.640 132.185,320.210 136.705,325.600 140.333 C 340.605 150.433,340.018 149.673,334.300 151.597 C 332.045 152.355,328.235 153.753,325.834 154.702 C 323.433 155.651,319.113 157.248,316.234 158.252 C 310.929 160.101,302.271 163.949,296.800 166.888 C 295.150 167.774,292.450 169.228,290.800 170.118 C 286.172 172.614,274.780 180.213,268.166 185.217 C 264.885 187.700,260.760 190.810,259.000 192.130 C 247.804 200.523,247.478 200.974,251.200 202.901 C 252.410 203.527,255.053 205.021,257.073 206.222 L 260.745 208.404 260.764 221.902 C 260.782 235.397,260.782 235.400,259.891 236.091 C 259.401 236.471,259.110 236.786,259.245 236.791 C 260.005 236.819,262.356 234.469,261.787 234.250 C 260.564 233.781,261.140 225.480,262.400 225.425 C 263.058 225.397,265.452 223.664,269.400 220.357 C 276.512 214.402,283.965 208.834,292.200 203.324 C 295.500 201.116,300.245 197.775,302.744 195.900 C 306.501 193.081,318.478 186.400,319.774 186.400 C 320.315 186.400,332.690 180.614,334.399 179.563 C 336.709 178.141,345.226 174.090,348.694 172.763 C 351.176 171.813,351.982 171.022,351.232 170.272 C 350.604 169.644,346.547 171.298,338.034 175.655 C 333.762 177.841,328.992 180.182,327.434 180.857 C 325.875 181.532,323.279 182.695,321.664 183.442 C 320.050 184.189,318.654 184.800,318.563 184.800 C 317.459 184.800,304.671 191.850,302.682 193.555 C 301.423 194.634,295.511 198.792,286.400 205.006 C 281.930 208.054,274.698 213.494,270.566 216.916 C 269.447 217.842,267.253 219.634,265.690 220.898 C 264.127 222.161,262.597 223.555,262.288 223.995 C 261.479 225.150,261.199 224.592,261.205 221.833 C 261.213 218.451,261.454 217.830,263.132 216.877 C 263.939 216.419,266.670 214.310,269.200 212.190 C 271.730 210.071,275.510 207.144,277.600 205.686 C 279.690 204.229,282.570 202.113,284.000 200.984 C 285.430 199.855,288.310 197.806,290.400 196.430 C 292.490 195.054,294.650 193.526,295.200 193.034 C 300.233 188.537,312.425 181.616,322.400 177.594 C 325.810 176.219,330.670 174.054,333.200 172.781 C 338.004 170.366,343.067 168.000,343.434 168.000 C 344.651 168.000,350.400 164.651,350.400 163.942 C 350.400 162.529,345.015 164.616,332.200 170.998 C 328.020 173.079,322.260 175.705,319.400 176.831 C 310.981 180.149,300.862 185.996,294.200 191.392 C 293.320 192.105,290.997 193.733,289.039 195.009 C 287.080 196.286,284.255 198.336,282.761 199.565 C 281.267 200.794,279.132 202.430,278.017 203.200 C 272.228 207.197,268.688 209.924,265.543 212.808 C 263.629 214.564,261.869 216.000,261.631 216.000 C 260.821 216.000,261.078 209.617,261.900 209.333 C 262.285 209.200,264.633 207.540,267.118 205.645 C 272.927 201.216,273.100 201.080,280.202 195.416 C 283.501 192.785,287.730 189.673,289.600 188.500 C 291.470 187.328,294.934 184.980,297.298 183.284 C 301.652 180.159,302.527 179.588,308.129 176.215 C 311.837 173.982,317.067 171.712,324.000 169.327 C 324.990 168.986,328.320 167.588,331.400 166.219 C 334.480 164.850,339.070 162.849,341.600 161.772 C 347.628 159.205,350.922 157.518,351.113 156.900 C 351.428 155.876,349.956 155.963,347.516 157.112 C 346.132 157.763,340.770 160.092,335.600 162.286 C 327.059 165.912,323.813 167.221,317.200 169.706 C 313.988 170.914,310.766 172.551,305.800 175.498 C 299.356 179.322,287.215 187.555,282.349 191.400 C 280.679 192.720,278.000 194.790,276.396 196.000 C 274.792 197.210,271.392 199.900,268.841 201.977 C 266.289 204.055,263.499 206.234,262.639 206.820 L 261.077 207.885 257.458 205.670 C 255.467 204.452,252.939 202.974,251.839 202.386 C 249.140 200.944,249.150 200.880,252.566 198.054 C 274.791 179.670,297.940 165.513,316.655 158.859 C 328.614 154.608,338.474 150.886,338.895 150.465 C 339.987 149.373,338.732 148.361,323.600 138.129 C 317.110 133.741,309.972 128.789,307.738 127.125 C 305.504 125.461,302.456 123.312,300.963 122.350 C 299.471 121.387,295.719 118.903,292.625 116.829 C 273.735 104.166,263.655 97.600,263.110 97.604 C 262.830 97.606,261.880 98.023,261.000 98.531 M248.600 112.349 C 247.280 113.196,242.184 116.300,237.275 119.245 C 220.470 129.328,218.940 130.269,203.800 139.813 C 195.643 144.955,187.756 149.597,183.429 151.802 C 178.724 154.200,178.553 154.483,181.072 155.710 C 182.132 156.227,184.203 157.385,185.673 158.283 L 188.345 159.917 192.751 159.482 C 204.925 158.279,222.941 162.454,231.400 168.437 C 239.991 174.514,243.502 184.179,240.981 194.809 C 240.557 196.597,243.126 199.013,243.742 197.406 C 243.868 197.079,246.722 194.758,250.085 192.246 C 253.448 189.735,258.900 185.584,262.200 183.022 C 275.281 172.866,288.532 164.772,303.142 158.012 C 312.529 153.669,312.215 153.991,309.653 151.332 C 305.971 147.513,306.123 142.403,310.003 139.535 C 312.216 137.899,312.151 137.821,303.000 131.100 C 298.434 127.746,279.649 115.224,277.720 114.248 C 276.036 113.396,275.860 113.413,273.240 114.698 C 267.633 117.448,256.381 115.778,252.638 111.641 C 251.621 110.518,251.387 110.559,248.600 112.349 M253.206 113.007 C 256.432 116.895,268.225 117.982,274.502 114.970 L 276.005 114.250 278.502 115.583 C 280.833 116.828,284.435 119.222,300.333 130.097 C 303.788 132.460,307.511 135.197,308.607 136.179 L 310.600 137.965 309.289 139.020 C 305.425 142.130,305.388 147.797,309.202 152.141 C 310.687 153.833,311.160 153.462,302.084 157.732 C 285.774 165.406,271.720 174.305,255.598 187.167 C 253.507 188.835,250.447 191.177,248.798 192.370 C 247.149 193.564,245.210 195.090,244.488 195.761 C 243.423 196.751,243.046 196.897,242.488 196.538 C 241.737 196.055,241.738 196.087,242.346 191.300 C 243.720 180.477,238.672 171.259,228.406 165.847 C 219.365 161.080,208.184 158.715,195.323 158.849 L 188.047 158.925 185.523 157.291 C 184.136 156.392,182.505 155.435,181.900 155.164 C 180.336 154.464,180.499 154.163,183.173 152.814 C 184.478 152.155,187.185 150.622,189.190 149.406 C 191.194 148.191,194.311 146.364,196.117 145.347 C 197.923 144.329,203.720 140.758,209.000 137.411 C 214.280 134.064,220.760 130.035,223.400 128.460 C 226.040 126.884,229.640 124.692,231.400 123.590 C 234.344 121.746,242.531 116.829,248.770 113.158 C 251.426 111.596,252.018 111.575,253.206 113.007 M249.800 136.746 C 244.724 138.202,242.594 140.518,242.609 144.566 C 242.643 154.248,257.221 157.968,267.846 151.006 C 272.707 147.822,272.268 140.452,267.055 137.731 C 263.551 135.901,254.537 135.387,249.800 136.746 M260.683 136.809 C 268.079 137.736,271.718 141.241,270.367 146.135 C 269.567 149.032,267.843 150.414,261.800 153.004 C 256.077 155.458,246.176 152.732,243.998 148.104 C 240.441 140.547,248.263 135.252,260.683 136.809 M360.000 152.125 C 360.000 152.194,360.585 152.779,361.300 153.425 L 362.600 154.600 361.425 153.300 C 360.330 152.088,360.000 151.816,360.000 152.125 M339.000 162.000 C 338.864 162.220,338.575 162.400,338.357 162.400 C 338.139 162.400,337.216 162.760,336.306 163.200 C 334.639 164.005,333.619 164.247,334.156 163.710 C 334.951 162.915,339.407 161.342,339.000 162.000 M159.401 163.199 C 159.265 163.418,158.220 164.030,157.077 164.559 C 155.935 165.088,153.380 166.275,151.400 167.197 C 147.362 169.077,128.039 177.600,127.815 177.600 C 127.736 177.600,126.350 178.208,124.736 178.952 C 123.121 179.695,119.370 181.398,116.400 182.735 C 102.674 188.916,80.452 201.556,80.908 202.924 C 80.991 203.174,81.946 203.894,83.030 204.524 C 90.539 208.888,91.103 216.117,84.190 219.387 C 82.943 219.977,82.086 220.616,82.230 220.849 C 82.669 221.559,85.645 224.193,90.158 227.866 C 92.546 229.810,95.872 232.528,97.550 233.906 C 102.344 237.845,112.258 245.627,114.907 247.530 L 117.314 249.259 120.391 247.853 C 128.663 244.072,138.213 245.104,145.825 250.602 C 146.595 251.159,146.901 251.018,150.464 248.477 C 158.788 242.539,164.921 238.704,171.800 235.137 C 179.186 231.307,179.842 231.011,194.200 225.031 C 202.416 221.608,212.409 216.828,216.800 214.218 C 218.010 213.499,220.275 212.176,221.833 211.278 C 227.039 208.275,226.724 207.663,220.975 209.612 C 208.448 213.857,195.289 213.883,183.800 209.685 C 162.335 201.842,152.865 181.805,163.641 167.032 C 164.963 165.218,164.820 164.868,162.241 163.620 C 160.347 162.703,159.761 162.616,159.401 163.199 M161.491 164.000 C 162.050 164.440,162.754 164.800,163.054 164.800 C 163.837 164.800,163.727 165.731,162.805 166.902 C 159.700 170.850,158.004 177.639,158.746 183.152 C 161.821 206.006,191.598 219.571,219.750 210.944 C 221.645 210.363,219.501 211.792,213.503 215.108 C 204.736 219.954,204.818 219.915,195.758 223.548 C 175.518 231.665,162.864 238.446,149.436 248.371 C 146.848 250.284,146.620 250.375,145.836 249.807 C 138.474 244.466,126.407 243.477,119.277 247.630 C 117.482 248.675,117.595 248.711,114.098 245.994 C 112.394 244.670,108.487 241.655,105.416 239.294 C 102.345 236.932,98.460 233.830,96.783 232.400 C 95.107 230.970,91.365 227.857,88.468 225.481 C 82.532 220.615,82.637 220.775,84.771 219.813 C 91.669 216.703,91.220 208.673,83.902 204.275 C 81.315 202.721,81.282 202.844,84.887 200.620 C 99.620 191.528,105.416 188.460,121.600 181.186 C 123.910 180.147,126.970 178.753,128.400 178.086 C 129.830 177.420,133.160 175.975,135.800 174.876 C 147.411 170.042,158.843 164.712,159.628 163.766 C 160.230 163.041,160.279 163.047,161.491 164.000 M359.178 174.700 L 357.800 176.200 359.300 174.822 C 360.696 173.538,360.984 173.200,360.678 173.200 C 360.612 173.200,359.937 173.875,359.178 174.700 M307.780 175.563 C 306.918 176.386,303.020 178.446,303.800 177.667 C 304.240 177.227,305.230 176.504,306.000 176.062 C 307.491 175.204,308.431 174.941,307.780 175.563 M323.259 176.454 C 321.862 177.106,320.512 177.562,320.259 177.466 C 320.007 177.371,320.160 177.166,320.600 177.010 C 321.565 176.669,322.657 176.240,324.000 175.675 C 326.205 174.747,325.636 175.345,323.259 176.454 M338.600 176.509 C 336.411 177.740,334.513 178.550,335.007 178.043 C 335.531 177.506,339.275 175.602,339.800 175.606 C 340.020 175.608,339.480 176.014,338.600 176.509 M319.400 178.000 C 319.264 178.220,318.883 178.400,318.553 178.400 C 318.223 178.400,318.064 178.220,318.200 178.000 C 318.336 177.780,318.717 177.600,319.047 177.600 C 319.377 177.600,319.536 177.780,319.400 178.000 M348.300 181.429 C 346.805 182.240,346.896 182.578,348.400 181.800 C 349.060 181.459,349.600 181.094,349.600 180.990 C 349.600 180.732,349.557 180.747,348.300 181.429 M304.800 185.373 C 304.800 185.695,302.355 187.289,302.160 187.094 C 302.054 186.987,302.559 186.520,303.283 186.057 C 304.692 185.155,304.800 185.106,304.800 185.373 M339.100 186.229 C 337.605 187.040,337.696 187.378,339.200 186.600 C 339.860 186.259,340.400 185.894,340.400 185.790 C 340.400 185.532,340.357 185.547,339.100 186.229 M335.600 188.000 C 334.830 188.422,334.380 188.766,334.600 188.766 C 334.820 188.766,335.630 188.422,336.400 188.000 C 337.170 187.578,337.620 187.234,337.400 187.234 C 337.180 187.234,336.370 187.578,335.600 188.000 M310.897 189.817 C 310.412 190.157,309.064 190.935,307.902 191.547 C 306.739 192.158,305.251 192.992,304.594 193.400 C 303.673 193.973,303.537 193.994,304.000 193.495 C 304.683 192.759,310.797 189.208,311.389 189.203 C 311.603 189.201,311.381 189.478,310.897 189.817 M290.415 203.616 C 289.653 204.267,288.858 204.800,288.648 204.800 C 288.168 204.800,288.429 204.540,290.081 203.372 C 291.908 202.080,292.072 202.200,290.415 203.616 M127.218 204.010 C 113.963 206.809,115.081 219.844,128.815 222.627 C 140.362 224.967,149.871 218.952,147.593 210.749 C 146.289 206.056,135.083 202.349,127.218 204.010 M41.775 205.300 L 40.600 206.600 41.900 205.425 C 42.615 204.779,43.200 204.194,43.200 204.125 C 43.200 203.816,42.870 204.088,41.775 205.300 M277.800 204.620 C 277.360 204.947,276.699 205.468,276.332 205.777 C 275.459 206.510,274.000 207.286,274.000 207.018 C 274.000 206.693,277.749 204.019,278.200 204.023 C 278.420 204.024,278.240 204.293,277.800 204.620 M140.394 205.767 C 146.937 207.990,149.110 212.431,146.031 217.287 C 140.358 226.232,118.364 222.753,118.407 212.916 C 118.437 205.948,129.930 202.211,140.394 205.767 M43.600 230.340 C 43.600 230.800,44.924 232.090,47.100 233.751 C 49.025 235.220,53.390 238.758,56.800 241.614 C 60.210 244.469,65.610 248.852,68.800 251.355 C 71.990 253.857,75.684 256.871,77.009 258.052 C 78.334 259.233,80.224 260.828,81.209 261.596 C 82.194 262.364,85.233 264.937,87.962 267.313 C 92.388 271.166,96.955 274.467,102.400 277.748 C 106.496 280.216,113.061 285.341,118.013 289.936 C 127.485 298.726,128.222 298.720,141.800 289.725 C 143.120 288.850,146.990 286.559,150.400 284.633 C 153.810 282.708,158.040 280.093,159.800 278.823 C 161.560 277.552,165.970 274.538,169.600 272.125 C 173.230 269.712,178.090 266.467,180.400 264.915 C 185.447 261.524,189.628 259.186,198.400 254.849 C 202.030 253.055,205.900 251.119,207.000 250.548 C 220.855 243.354,225.998 240.575,229.200 238.550 C 236.032 234.230,239.815 232.000,240.312 232.000 C 240.957 232.000,240.946 230.414,240.300 230.353 C 239.231 230.251,238.659 230.515,235.089 232.753 C 233.060 234.026,230.140 235.751,228.600 236.586 C 227.060 237.422,224.540 238.864,223.000 239.790 C 218.872 242.274,206.257 248.895,202.800 250.392 C 195.799 253.425,185.977 258.900,178.705 263.822 C 176.123 265.570,173.063 267.579,171.905 268.287 C 169.548 269.729,168.205 270.643,161.615 275.293 C 159.093 277.072,153.873 280.358,150.015 282.595 C 146.157 284.832,141.172 287.856,138.938 289.314 C 127.981 296.466,127.387 296.431,118.922 288.120 C 114.189 283.473,109.838 280.211,97.600 272.137 C 94.026 269.779,91.626 267.883,84.912 262.113 C 78.305 256.435,73.298 252.280,68.536 248.522 C 62.561 243.807,56.307 238.726,53.523 236.325 C 46.862 230.579,43.600 228.612,43.600 230.340 M58.151 232.367 C 62.998 236.494,64.184 237.600,63.763 237.600 C 63.275 237.600,60.814 235.607,57.957 232.898 C 56.723 231.729,55.373 230.514,54.957 230.199 C 54.541 229.883,54.358 229.620,54.551 229.613 C 54.744 229.606,56.364 230.845,58.151 232.367 M35.709 231.600 C 35.709 232.590,35.787 232.995,35.882 232.500 C 35.978 232.005,35.978 231.195,35.882 230.700 C 35.787 230.205,35.709 230.610,35.709 231.600 M49.568 233.955 C 51.126 235.140,52.400 236.287,52.400 236.504 C 52.400 236.945,52.456 236.982,49.068 234.272 C 47.785 233.246,46.210 232.097,45.568 231.717 C 44.925 231.338,44.400 230.870,44.400 230.677 C 44.400 230.227,46.019 231.253,49.568 233.955 M227.200 231.366 C 227.200 231.606,221.164 235.200,220.762 235.200 C 220.576 235.200,219.783 235.560,219.000 236.000 C 218.217 236.440,217.455 236.800,217.308 236.800 C 216.691 236.800,218.005 235.924,220.810 234.466 C 222.454 233.611,224.430 232.539,225.200 232.084 C 226.586 231.265,227.200 231.045,227.200 231.366 M236.000 233.600 C 235.450 234.030,234.820 234.382,234.600 234.382 C 234.380 234.382,234.650 234.030,235.200 233.600 C 235.750 233.170,236.380 232.818,236.600 232.818 C 236.820 232.818,236.550 233.170,236.000 233.600 M229.600 237.132 C 229.600 237.315,229.105 237.714,228.500 238.018 C 227.895 238.322,226.895 238.912,226.277 239.329 C 225.659 239.746,225.060 239.994,224.946 239.879 C 224.832 239.765,225.787 239.040,227.069 238.267 C 229.796 236.625,229.600 236.712,229.600 237.132 M256.900 237.826 C 255.965 238.387,255.200 238.940,255.200 239.055 C 255.200 239.271,257.899 237.738,258.580 237.136 C 259.267 236.528,258.627 236.791,256.900 237.826 M239.367 237.893 C 238.689 238.282,236.169 239.662,233.767 240.959 C 228.003 244.073,225.247 245.709,221.478 248.253 C 219.761 249.412,215.171 251.970,211.278 253.937 C 192.067 263.644,188.030 265.857,182.827 269.534 C 179.872 271.622,174.202 275.430,170.227 277.995 C 166.252 280.561,161.677 283.522,160.060 284.576 C 158.443 285.629,153.763 288.421,149.660 290.781 C 145.557 293.140,140.580 296.036,138.600 297.217 C 127.759 303.681,127.291 303.709,120.881 298.273 C 115.807 293.969,107.612 288.101,99.400 282.891 C 91.452 277.848,90.945 277.465,83.248 270.661 C 80.299 268.054,76.607 264.968,75.043 263.802 C 73.479 262.636,71.480 261.014,70.600 260.198 C 69.720 259.382,66.750 256.609,64.000 254.037 C 56.150 246.693,45.059 237.600,43.952 237.600 C 42.142 237.600,43.268 239.295,47.011 242.201 C 54.732 248.198,57.154 250.264,63.094 255.924 C 66.583 259.248,70.689 262.903,72.219 264.048 C 73.748 265.192,76.530 267.501,78.400 269.178 C 87.264 277.127,90.993 279.972,100.545 286.075 C 108.192 290.960,114.202 295.256,119.000 299.268 C 127.447 306.330,127.438 306.331,142.269 297.311 C 146.267 294.879,151.217 291.988,153.269 290.886 C 157.725 288.493,160.231 286.951,167.281 282.263 C 170.206 280.317,175.120 277.063,178.200 275.031 C 181.280 272.999,185.018 270.411,186.506 269.280 C 187.994 268.149,191.684 265.984,194.706 264.468 C 197.728 262.953,203.440 260.090,207.400 258.106 C 214.688 254.455,218.436 252.367,225.050 248.274 C 227.058 247.031,231.648 244.435,235.250 242.506 C 240.334 239.782,241.800 238.819,241.800 238.204 C 241.800 237.147,240.874 237.029,239.367 237.893 M240.800 238.361 C 240.800 238.559,240.260 238.910,239.600 239.140 C 238.100 239.663,238.052 239.415,239.500 238.629 C 240.830 237.907,240.800 237.913,240.800 238.361 M45.825 239.668 L 47.000 240.936 45.712 240.050 C 44.333 239.100,43.735 238.400,44.302 238.400 C 44.493 238.400,45.179 238.971,45.825 239.668 M59.200 242.005 C 59.310 242.119,60.390 243.016,61.600 244.000 C 62.810 244.984,63.890 245.890,64.000 246.013 C 64.110 246.136,65.336 247.103,66.724 248.161 C 69.294 250.119,69.934 251.244,67.523 249.566 C 65.948 248.470,57.600 241.177,57.600 240.897 C 57.600 240.723,58.681 241.472,59.200 242.005 M74.786 245.446 C 76.690 246.902,81.384 251.549,81.168 251.765 C 81.048 251.885,78.891 249.982,76.375 247.536 C 73.859 245.091,72.250 243.450,72.800 243.891 C 73.350 244.331,74.244 245.031,74.786 245.446 M54.656 246.891 C 54.811 247.141,54.276 246.841,53.468 246.225 C 52.661 245.609,52.000 245.024,52.000 244.925 C 52.000 244.647,54.340 246.379,54.656 246.891 M198.767 245.754 C 198.438 246.057,186.778 252.000,186.512 252.000 C 185.682 252.000,188.631 250.217,192.600 248.319 C 193.920 247.688,195.630 246.834,196.400 246.421 C 197.613 245.771,199.247 245.310,198.767 245.754 M43.800 251.200 C 46.212 253.620,48.276 255.600,48.386 255.600 C 48.496 255.600,46.612 253.620,44.200 251.200 C 41.788 248.780,39.724 246.800,39.614 246.800 C 39.504 246.800,41.388 248.780,43.800 251.200 M59.945 251.022 C 62.368 253.281,62.717 254.420,60.332 252.284 C 55.910 248.324,55.200 247.650,55.200 247.409 C 55.200 246.989,57.495 248.736,59.945 251.022 M211.118 247.415 C 209.820 248.713,202.149 252.282,201.675 251.808 C 201.581 251.715,202.471 251.227,203.652 250.723 C 204.834 250.220,206.880 249.233,208.200 248.529 C 210.397 247.358,211.656 246.877,211.118 247.415 M224.200 247.843 C 223.273 248.559,220.864 249.847,221.281 249.403 C 221.436 249.239,222.156 248.684,222.881 248.172 C 224.337 247.142,225.475 246.859,224.200 247.843 M218.800 251.200 C 217.832 251.957,217.200 252.199,217.200 251.813 C 217.200 251.620,219.244 250.438,219.600 250.425 C 219.710 250.421,219.350 250.770,218.800 251.200 M74.065 253.880 C 75.530 255.064,76.970 256.335,77.265 256.704 C 77.846 257.434,73.864 254.400,71.600 252.389 C 69.454 250.483,71.072 251.461,74.065 253.880 M201.200 252.171 C 201.200 252.446,198.687 253.620,198.500 253.433 C 198.406 253.339,198.840 252.986,199.465 252.647 C 200.618 252.022,201.200 251.862,201.200 252.171 M91.731 259.478 C 92.353 259.985,92.754 260.400,92.623 260.400 C 92.324 260.400,89.072 258.374,88.800 258.019 C 88.690 257.875,87.958 257.368,87.174 256.892 C 86.389 256.416,85.399 255.632,84.974 255.150 C 84.205 254.279,89.567 257.714,91.731 259.478 M51.600 258.525 C 51.600 258.594,52.185 259.179,52.900 259.825 L 54.200 261.000 53.025 259.700 C 51.930 258.488,51.600 258.216,51.600 258.525 M68.800 259.656 C 68.800 259.800,70.526 261.242,72.636 262.859 C 77.772 266.796,77.600 266.654,77.600 266.937 C 77.600 267.458,70.910 262.357,69.000 260.380 C 67.900 259.241,67.405 258.553,67.900 258.851 C 68.395 259.149,68.800 259.511,68.800 259.656 M95.825 262.400 C 95.991 262.400,97.043 263.086,98.163 263.924 C 99.283 264.762,100.887 265.950,101.726 266.564 C 102.566 267.178,103.150 267.783,103.025 267.909 C 102.899 268.034,102.393 267.768,101.898 267.319 C 101.404 266.869,99.331 265.375,97.292 263.999 C 95.252 262.622,93.464 261.304,93.319 261.069 C 93.174 260.835,93.611 261.038,94.290 261.521 C 94.968 262.005,95.659 262.400,95.825 262.400 M171.200 261.220 C 169.813 262.161,169.022 262.435,170.000 261.636 C 170.550 261.186,171.180 260.817,171.400 260.815 C 171.620 260.813,171.530 260.996,171.200 261.220 M55.200 261.725 C 55.200 261.794,55.785 262.379,56.500 263.025 L 57.800 264.200 56.625 262.900 C 55.530 261.688,55.200 261.416,55.200 261.725 M86.153 264.000 C 88.201 265.578,89.771 267.162,89.528 267.405 C 89.241 267.692,84.102 263.241,84.038 262.651 C 84.017 262.459,84.309 262.549,84.687 262.851 C 85.065 263.153,85.725 263.670,86.153 264.000 M168.800 262.547 C 168.800 262.824,165.527 264.860,165.356 264.689 C 165.262 264.595,165.863 264.052,166.692 263.483 C 168.106 262.513,168.800 262.204,168.800 262.547 M181.200 263.390 C 181.200 263.494,180.615 263.865,179.900 264.214 L 178.600 264.848 179.600 264.033 C 180.563 263.248,181.200 262.992,181.200 263.390 M194.800 263.392 C 194.800 263.597,192.170 265.038,190.200 265.911 C 188.141 266.824,189.701 265.677,192.212 264.431 C 194.922 263.087,194.800 263.136,194.800 263.392 M85.569 273.880 C 86.108 274.364,87.951 275.804,89.665 277.080 C 91.379 278.356,92.786 279.539,92.791 279.709 C 92.813 280.456,86.637 275.777,84.400 273.352 C 83.028 271.865,83.631 272.137,85.569 273.880 M96.800 272.833 L 97.800 273.648 96.500 273.014 C 95.785 272.665,95.200 272.294,95.200 272.190 C 95.200 271.792,95.837 272.048,96.800 272.833 M100.128 274.726 C 101.048 275.345,102.610 276.318,103.600 276.888 C 105.495 277.978,107.200 279.328,107.200 279.737 C 107.200 280.186,101.489 276.571,98.800 274.418 C 97.310 273.226,98.210 273.434,100.128 274.726 M151.200 274.581 C 151.200 274.874,145.525 278.458,145.345 278.278 C 145.095 278.028,146.281 277.137,148.759 275.712 C 151.179 274.322,151.200 274.312,151.200 274.581 M163.775 275.119 C 162.702 276.116,158.170 279.164,157.308 279.470 C 156.413 279.788,159.624 277.274,162.205 275.638 C 164.420 274.233,164.902 274.074,163.775 275.119 M177.600 274.543 C 177.600 274.977,170.414 279.347,170.145 279.078 C 169.964 278.897,173.010 276.809,173.491 276.784 C 173.661 276.775,174.520 276.242,175.400 275.600 C 176.869 274.528,177.600 274.177,177.600 274.543 M117.843 278.222 C 119.558 279.937,120.293 281.120,118.900 279.923 C 118.515 279.592,117.660 278.864,117.000 278.306 C 116.340 277.747,115.260 276.811,114.600 276.224 L 113.400 275.157 114.743 275.811 C 115.482 276.171,116.877 277.256,117.843 278.222 M142.056 280.413 C 141.167 281.154,140.400 281.432,140.400 281.013 C 140.400 280.817,142.452 279.634,142.800 279.629 C 142.910 279.628,142.575 279.981,142.056 280.413 M103.400 286.593 L 104.200 287.244 103.400 286.851 C 102.960 286.635,102.240 286.166,101.800 285.807 L 101.000 285.156 101.800 285.549 C 102.240 285.765,102.960 286.234,103.400 286.593 M119.299 289.529 C 120.344 290.636,121.677 291.917,122.260 292.376 C 122.844 292.835,123.213 293.320,123.079 293.454 C 122.946 293.587,120.893 291.763,118.518 289.400 C 116.143 287.036,114.920 285.646,115.800 286.310 C 116.680 286.974,118.255 288.423,119.299 289.529 M114.225 294.040 C 114.483 294.458,111.625 292.842,110.944 292.185 C 110.693 291.943,109.390 291.037,108.047 290.172 C 106.705 289.308,105.605 288.456,105.603 288.280 C 105.600 287.931,113.860 293.450,114.225 294.040 M138.800 290.726 C 138.800 291.112,135.564 292.898,135.316 292.649 C 135.179 292.512,138.335 290.418,138.700 290.404 C 138.755 290.402,138.800 290.547,138.800 290.726 M149.655 292.023 C 148.915 292.474,148.224 292.757,148.120 292.653 C 147.906 292.439,149.979 291.240,150.600 291.218 C 150.820 291.210,150.395 291.572,149.655 292.023 M134.800 292.954 C 134.800 293.039,134.350 293.403,133.800 293.763 C 133.250 294.124,132.800 294.262,132.800 294.070 C 132.800 293.879,133.205 293.527,133.700 293.288 C 134.786 292.765,134.800 292.760,134.800 292.954 M128.200 295.600 L 129.000 295.944 128.200 295.966 C 127.760 295.978,127.130 295.813,126.800 295.600 C 126.005 295.086,127.004 295.086,128.200 295.600 M132.800 301.790 C 132.800 302.115,130.337 303.271,130.116 303.050 C 130.001 302.934,130.513 302.576,131.253 302.253 C 132.913 301.529,132.800 301.563,132.800 301.790 M128.000 303.208 L 129.800 303.493 127.976 303.547 C 126.839 303.580,125.861 303.362,125.376 302.967 C 124.611 302.344,124.611 302.339,125.400 302.629 C 125.840 302.790,127.010 303.051,128.000 303.208 " stroke="none" fill="#96b29a" fill-rule="evenodd"></path><path id="path4" d="M14.600 0.400 C 14.464 0.620,13.992 0.800,13.551 0.800 C 8.233 0.800,0.032 10.474,0.006 16.780 C -0.002 18.738,0.806 17.795,1.062 15.548 C 1.607 10.763,5.784 4.982,10.236 2.852 C 11.316 2.335,12.513 1.752,12.895 1.556 C 13.277 1.360,14.110 1.200,14.746 1.200 C 15.382 1.200,16.126 0.930,16.400 0.600 C 16.821 0.093,16.739 0.000,15.873 0.000 C 15.309 0.000,14.736 0.180,14.600 0.400 M383.600 0.600 C 383.874 0.930,384.618 1.200,385.254 1.200 C 385.890 1.200,386.723 1.360,387.105 1.556 C 387.487 1.752,388.684 2.335,389.764 2.852 C 392.283 4.057,395.943 7.717,397.148 10.236 C 397.665 11.316,398.248 12.513,398.444 12.895 C 398.640 13.277,398.800 14.277,398.800 15.118 C 398.800 15.959,399.064 16.996,399.387 17.424 C 401.071 19.650,399.428 12.651,397.433 9.099 C 395.403 5.485,389.202 0.800,386.449 0.800 C 386.008 0.800,385.536 0.620,385.400 0.400 C 385.264 0.180,384.691 0.000,384.127 0.000 C 383.261 0.000,383.179 0.093,383.600 0.600 M262.200 84.664 C 260.238 85.085,257.642 86.257,254.835 87.989 C 249.498 91.283,247.904 92.212,242.800 95.001 C 240.050 96.504,235.370 99.114,232.400 100.802 C 227.213 103.750,225.119 104.917,220.100 107.655 C 215.774 110.015,214.192 110.957,206.400 115.806 C 202.110 118.476,197.880 121.077,197.000 121.585 C 194.957 122.765,189.181 126.443,182.800 130.628 C 169.924 139.072,151.974 148.131,136.800 153.844 C 135.370 154.383,133.840 154.974,133.400 155.158 C 131.319 156.029,130.497 156.357,129.200 156.832 C 127.987 157.276,118.068 161.375,115.800 162.369 C 115.360 162.561,114.370 162.949,113.600 163.230 C 112.830 163.512,111.300 164.138,110.200 164.622 C 109.100 165.106,106.130 166.367,103.600 167.424 C 99.259 169.239,94.314 171.679,87.000 175.615 C 76.724 181.145,70.606 184.510,67.600 186.286 C 36.372 204.730,34.551 206.980,34.653 227.000 C 34.710 238.382,35.262 242.189,37.380 245.801 C 39.412 249.269,55.285 264.142,66.950 273.507 C 69.342 275.428,73.482 278.860,76.150 281.133 C 78.817 283.405,82.490 286.375,84.312 287.733 C 86.133 289.090,89.019 291.280,90.726 292.600 C 92.432 293.920,96.072 296.576,98.814 298.501 C 106.611 303.976,110.420 306.751,114.755 310.111 C 124.133 317.381,129.250 317.115,142.724 308.653 C 143.536 308.143,145.820 306.860,147.800 305.802 C 159.749 299.417,172.014 291.587,185.853 281.509 C 192.295 276.817,192.268 276.833,201.200 272.370 C 209.955 267.996,219.866 262.687,223.292 260.536 C 224.113 260.021,224.879 259.600,224.995 259.600 C 226.013 259.600,241.065 249.873,243.963 247.342 C 245.289 246.185,250.660 242.862,263.600 235.197 C 270.507 231.105,275.783 227.550,283.772 221.602 C 297.432 211.434,314.426 200.510,324.800 195.230 C 327.110 194.054,329.180 192.958,329.400 192.793 C 329.620 192.629,335.380 189.673,342.200 186.224 C 358.973 177.743,361.725 175.557,364.615 168.421 C 367.768 160.637,366.010 155.141,358.502 149.307 C 346.719 140.153,343.027 137.391,338.077 134.026 C 336.165 132.726,333.340 130.667,331.800 129.451 C 327.077 125.721,313.941 116.763,288.800 100.128 C 281.430 95.252,273.780 89.984,271.800 88.421 C 267.550 85.069,264.989 84.066,262.200 84.664 M269.369 88.147 C 270.706 89.089,274.140 91.571,277.000 93.663 C 279.860 95.756,284.919 99.195,288.242 101.306 C 299.782 108.638,321.854 123.584,328.794 128.765 C 330.440 129.994,333.792 132.440,336.242 134.200 C 345.162 140.609,349.473 143.790,353.000 146.567 C 354.980 148.126,357.666 150.211,358.968 151.201 C 365.147 155.896,366.352 161.796,362.727 169.600 C 359.832 175.831,357.626 177.271,328.520 191.925 C 313.559 199.458,295.857 210.793,278.335 224.062 C 275.628 226.111,272.006 228.537,263.197 234.200 C 257.890 237.611,247.339 244.043,246.148 244.593 C 245.460 244.910,244.380 245.593,243.748 246.110 C 237.753 251.017,222.266 260.209,206.200 268.396 C 191.569 275.852,191.525 275.879,177.600 285.860 C 166.048 294.140,149.558 304.022,136.008 310.786 C 126.008 315.778,123.850 315.635,115.882 309.456 C 111.960 306.415,101.099 298.514,95.800 294.847 C 91.581 291.928,80.792 283.387,67.950 272.801 C 55.369 262.429,41.098 249.106,38.915 245.694 C 35.230 239.934,34.253 220.569,37.244 212.575 C 39.679 206.067,47.640 199.163,62.469 190.699 C 64.301 189.654,67.240 187.972,69.000 186.962 C 92.460 173.500,105.975 167.084,130.857 157.594 C 143.851 152.638,162.663 144.074,170.600 139.501 C 175.077 136.921,182.180 132.535,187.600 129.002 C 190.570 127.067,195.745 123.800,199.100 121.742 C 202.455 119.684,208.035 116.258,211.500 114.129 C 214.965 112.000,222.930 107.443,229.200 104.002 C 235.470 100.561,244.110 95.698,248.400 93.196 C 259.295 86.842,260.131 86.406,262.075 86.060 C 264.567 85.618,266.608 86.202,269.369 88.147 M0.013 383.173 C 0.000 384.517,1.141 388.224,2.188 390.242 C 3.943 393.625,8.674 397.661,12.206 398.789 C 13.083 399.069,14.113 399.456,14.495 399.649 C 15.720 400.268,16.983 400.103,16.400 399.400 C 16.126 399.070,15.382 398.800,14.746 398.800 C 14.110 398.800,13.277 398.635,12.895 398.434 C 12.513 398.232,11.570 397.792,10.800 397.455 C 7.881 396.177,4.186 392.575,2.792 389.648 C 2.308 388.632,1.752 387.487,1.556 387.105 C 1.360 386.723,1.200 385.723,1.200 384.882 C 1.200 384.041,0.936 383.004,0.613 382.576 C 0.059 381.845,0.025 381.879,0.013 383.173 M399.300 382.674 C 399.025 383.154,398.800 384.192,398.800 384.979 C 398.800 385.767,398.640 386.723,398.444 387.105 C 398.248 387.487,397.692 388.632,397.208 389.648 C 396.724 390.665,395.576 392.285,394.657 393.248 C 392.313 395.706,391.659 396.158,387.205 398.400 C 386.768 398.620,385.890 398.800,385.254 398.800 C 384.618 398.800,383.874 399.070,383.600 399.400 C 383.017 400.103,384.280 400.268,385.505 399.649 C 385.887 399.456,386.920 399.070,387.800 398.791 C 393.998 396.826,400.446 388.470,399.924 383.077 C 399.804 381.843,399.783 381.829,399.300 382.674 " stroke="none" fill="#5cf36c" fill-rule="evenodd"></path></g></svg>